# File created by Blade
# Date/Time:  Wed Jan 21 14:55:15 2015
# Frame Rate: 120.000 fps
#------------------------------------------------------
:FULLY-SPECIFIED
:DEGREES
472
root 18.658674 17.380507 -19.675290 -108.446484 84.029894 -129.187563
Spine -10.798611 -4.907790 6.344978
Head -8.014164 -0.770171 -1.253896
LeftShoulder -19.845595 -39.661903 26.885953
LeftArm -14.182923 4.347185 -1.603568
LeftForeArm 5.139392 -0.000000 -0.427603
LeftHand -12.180841 -0.000000 2.513560
LeftHandThumb1 -26.253704 0.000000 33.147579
RightShoulder -14.337939 2.676926 -16.515988
RightArm -15.468684 38.686100 5.596284
RightForeArm -37.573149 -0.000000 9.804630
RightHand -11.922504 0.000000 1.895611
RightHandThumb1 -24.326973 -0.000000 -32.862282
LeftUpLeg 5.333160 13.482516 4.250267
LeftLeg 76.382942 -0.000000 -0.000000
LeftFoot -20.623747 16.557981 -13.411042
LeftToeBase -73.637078 -0.000000 0.000000
RightUpLeg -109.877293 13.291443 8.043481
RightLeg 109.564016 -0.000000 -0.000000
RightFoot -39.151239 -22.565391 15.224679
RightToeBase 25.706519 -0.000000 -0.000000
473
root 18.662136 17.384473 -19.666139 -107.323961 83.978645 -128.462499
Spine -10.876519 -4.830283 6.459516
Head -8.338326 -0.829904 -1.290275
LeftShoulder -19.941420 -39.647442 26.935895
LeftArm -14.346093 4.350892 -1.796906
LeftForeArm 4.807585 0.000000 -0.389582
LeftHand -12.169090 -0.000000 2.594249
LeftHandThumb1 -26.253704 0.000000 33.147579
RightShoulder -14.348111 2.758498 -16.614383
RightArm -15.728850 38.736235 5.658531
RightForeArm -37.484469 -0.000000 9.826485
RightHand -12.050625 0.000000 1.811629
RightHandThumb1 -24.326973 -0.000000 -32.862282
LeftUpLeg 4.951743 13.565047 4.266207
LeftLeg 76.358725 -0.000000 -0.000000
LeftFoot -20.646550 16.484297 -13.436643
LeftToeBase -73.939098 -0.000000 0.000000
RightUpLeg -110.231911 13.421886 8.035044
RightLeg 109.514035 -0.000000 -0.000000
RightFoot -39.136561 -22.616298 15.188839
RightToeBase 25.626180 -0.000000 -0.000000
474
root 18.671504 17.381911 -19.661638 -106.818949 83.953197 -128.179664
Spine -10.711800 -4.812334 6.513570
Head -8.711894 -0.870550 -1.317995
LeftShoulder -20.009841 -39.811709 27.022365
LeftArm -14.611097 4.376438 -1.932506
LeftForeArm 4.584129 -0.000000 -0.286925
LeftHand -12.242347 0.000000 2.595914
LeftHandThumb1 -26.253704 0.000000 33.147579
RightShoulder -14.380901 2.784606 -16.671695
RightArm -15.892500 38.830457 5.781569
RightForeArm -37.319655 -0.000000 9.806680
RightHand -12.180909 -0.000000 1.737621
RightHandThumb1 -24.326973 -0.000000 -32.862282
LeftUpLeg 4.769202 13.578427 4.258161
LeftLeg 76.319630 -0.000000 -0.000000
LeftFoot -20.663193 16.452234 -13.391614
LeftToeBase -73.773612 -0.000000 0.000000
RightUpLeg -110.446269 13.481830 8.027858
RightLeg 109.516574 -0.000000 -0.000000
RightFoot -39.130827 -22.643251 15.176895
RightToeBase 25.692773 -0.000000 -0.000000
475
root 18.683166 17.376146 -19.654859 -106.500670 83.934988 -127.995194
Spine -10.409068 -4.794370 6.532231
Head -9.139079 -0.979422 -1.366819
LeftShoulder -20.085991 -39.872575 27.042703
LeftArm -14.760473 4.147169 -2.043325
LeftForeArm 4.389940 -0.000000 -0.267228
LeftHand -12.258190 -0.000000 2.503013
LeftHandThumb1 -26.253704 0.000000 33.147579
RightShoulder -14.365972 2.947215 -16.760974
RightArm -16.255137 38.905382 5.814342
RightForeArm -37.250483 -0.000000 9.894145
RightHand -12.240940 0.000000 1.689078
RightHandThumb1 -24.326973 -0.000000 -32.862282
LeftUpLeg 4.685189 13.589918 4.284345
LeftLeg 76.281742 -0.000000 -0.000000
LeftFoot -20.682187 16.353003 -13.392152
LeftToeBase -73.937743 -0.000000 0.000000
RightUpLeg -110.581283 13.542682 8.026597
RightLeg 109.543481 -0.000000 -0.000000
RightFoot -39.144797 -22.696059 15.152146
RightToeBase 25.719119 -0.000000 -0.000000
476
root 18.697443 17.369286 -19.648810 -106.121878 83.908270 -127.732948
Spine -10.092245 -4.802087 6.578511
Head -9.533432 -0.947603 -1.441139
LeftShoulder -20.127611 -40.061320 27.100634
LeftArm -15.055241 4.204829 -2.184535
LeftForeArm 4.153424 0.000000 -0.151451
LeftHand -12.444040 -0.000000 2.530269
LeftHandThumb1 -26.253704 0.000000 33.147579
RightShoulder -14.395444 3.020559 -16.861837
RightArm -16.403486 39.127942 5.985217
RightForeArm -37.310438 0.000000 9.892618
RightHand -12.376282 -0.000000 1.715375
RightHandThumb1 -24.326973 -0.000000 -32.862282
LeftUpLeg 4.627639 13.600341 4.322285
LeftLeg 76.228662 -0.000000 -0.000000
LeftFoot -20.713378 16.273646 -13.505026
LeftToeBase -74.671689 -0.000000 0.000000
RightUpLeg -110.698225 13.607025 8.038515
RightLeg 109.586940 -0.000000 -0.000000
RightFoot -39.148012 -22.712252 15.154085
RightToeBase 25.701213 -0.000000 -0.000000
477
root 18.711313 17.363237 -19.643539 -105.757410 83.875734 -127.526495
Spine -9.824858 -4.777163 6.631579
Head -9.878600 -0.977742 -1.494088
LeftShoulder -20.166891 -40.170127 27.165066
LeftArm -15.291334 4.000356 -2.361699
LeftForeArm 4.028139 -0.000000 -0.148987
LeftHand -12.488303 0.000000 2.511829
LeftHandThumb1 -26.253704 0.000000 33.147579
RightShoulder -14.368068 3.222500 -16.971427
RightArm -16.718625 39.050315 6.052245
RightForeArm -37.187318 -0.000000 9.988301
RightHand -12.571873 -0.000000 1.794281
RightHandThumb1 -24.326973 -0.000000 -32.862282
LeftUpLeg 4.523508 13.612216 4.349078
LeftLeg 76.183339 -0.000000 -0.000000
LeftFoot -20.739630 16.196831 -13.506402
LeftToeBase -74.656646 -0.000000 0.000000
RightUpLeg -110.853147 13.665884 8.049507
RightLeg 109.618761 -0.000000 -0.000000
RightFoot -39.169823 -22.765055 15.127178
RightToeBase 25.790842 -0.000000 -0.000000
478
root 18.724972 17.358692 -19.635317 -105.288501 83.831509 -127.220860
Spine -9.560928 -4.790649 6.690592
Head -10.177843 -1.039459 -1.558809
LeftShoulder -20.208855 -40.400050 27.238914
LeftArm -15.575089 3.954257 -2.434804
LeftForeArm 3.694498 0.000000 -0.127246
LeftHand -12.354817 -0.000000 2.462775
LeftHandThumb1 -26.253704 0.000000 33.147579
RightShoulder -14.317159 3.371076 -16.992668
RightArm -16.922687 39.080950 6.098808
RightForeArm -37.138853 -0.000000 10.000120
RightHand -12.680709 -0.000000 1.818603
RightHandThumb1 -24.326973 -0.000000 -32.862282
LeftUpLeg 4.415690 13.632991 4.399263
LeftLeg 76.140492 -0.000000 -0.000000
LeftFoot -20.735341 16.141437 -13.400029
LeftToeBase -74.552072 -0.000000 0.000000
RightUpLeg -111.006487 13.747192 8.068774
RightLeg 109.636142 -0.000000 -0.000000
RightFoot -39.118216 -22.767910 15.152162
RightToeBase 25.510106 -0.000000 -0.000000
479
root 18.739833 17.354983 -19.626955 -104.793844 83.767052 -126.889370
Spine -9.272512 -4.770334 6.786399
Head -10.533970 -1.136447 -1.657690
LeftShoulder -20.279981 -40.536287 27.217405
LeftArm -15.667407 3.785465 -2.522258
LeftForeArm 3.465103 -0.000000 -0.199235
LeftHand -12.578897 -0.000000 2.338728
LeftHandThumb1 -26.253704 0.000000 33.147579
RightShoulder -14.338387 3.492966 -17.121866
RightArm -17.123715 39.215044 6.277415
RightForeArm -37.211100 0.000000 10.047484
RightHand -12.705543 -0.000000 1.799684
RightHandThumb1 -24.326973 -0.000000 -32.862282
LeftUpLeg 4.309155 13.655198 4.470390
LeftLeg 76.100215 -0.000000 -0.000000
LeftFoot -20.769652 16.064365 -13.385436
LeftToeBase -74.319046 -0.000000 0.000000
RightUpLeg -111.145092 13.823741 8.120622
RightLeg 109.650079 -0.000000 -0.000000
RightFoot -39.137122 -22.925144 15.060757
RightToeBase 25.598465 -0.000000 -0.000000
480
root 18.755584 17.350155 -19.620835 -104.359598 83.707504 -126.623716
Spine -9.005743 -4.776573 6.884174
Head -10.831022 -1.156826 -1.745450
LeftShoulder -20.300893 -40.719805 27.223755
LeftArm -15.890719 3.687598 -2.608629
LeftForeArm 3.157171 -0.000000 -0.257206
LeftHand -12.573686 -0.000000 2.498179
LeftHandThumb1 -26.253704 0.000000 33.147579
RightShoulder -14.274959 3.604346 -17.190069
RightArm -17.332971 39.205224 6.386227
RightForeArm -37.040564 -0.000000 10.107413
RightHand -12.836570 -0.000000 1.752063
RightHandThumb1 -24.326973 -0.000000 -32.862282
LeftUpLeg 4.193432 13.685219 4.531806
LeftLeg 76.054820 -0.000000 -0.000000
LeftFoot -20.797367 16.040793 -13.448323
LeftToeBase -74.844086 -0.000000 0.000000
RightUpLeg -111.295887 13.896393 8.166026
RightLeg 109.677620 -0.000000 -0.000000
RightFoot -39.153228 -23.011444 15.013765
RightToeBase 25.578161 -0.000000 -0.000000
481
root 18.771112 17.344798 -19.616647 -103.682051 83.670144 -126.121896
Spine -8.724991 -4.729730 6.971345
Head -11.156016 -1.233533 -1.846405
LeftShoulder -20.402455 -40.848544 27.230231
LeftArm -15.949334 3.492415 -2.748796
LeftForeArm 2.928368 -0.000000 -0.377404
LeftHand -12.699150 -0.000000 2.440815
LeftHandThumb1 -26.253704 0.000000 33.147579
RightShoulder -14.249380 3.710517 -17.292032
RightArm -17.531140 39.264766 6.538955
RightForeArm -37.035883 -0.000000 10.190413
RightHand -12.946119 -0.000000 1.717703
RightHandThumb1 -24.326973 -0.000000 -32.862282
LeftUpLeg 4.080437 13.742620 4.564055
LeftLeg 76.002426 -0.000000 -0.000000
LeftFoot -20.808732 16.003850 -13.452330
LeftToeBase -74.502657 -0.000000 0.000000
RightUpLeg -111.459189 13.985843 8.195393
RightLeg 109.698998 -0.000000 -0.000000
RightFoot -39.110410 -22.996911 15.067862
RightToeBase 25.260608 -0.000000 -0.000000
482
root 18.786215 17.335738 -19.616019 -103.297506 83.691635 -125.848577
Spine -8.323250 -4.735410 6.965247
Head -11.553999 -1.252712 -1.900974
LeftShoulder -20.520219 -41.093652 27.288019
LeftArm -16.099134 3.421798 -2.814759
LeftForeArm 2.611617 -0.000000 -0.381873
LeftHand -12.881534 -0.000000 2.174449
LeftHandThumb1 -26.253704 0.000000 33.147579
RightShoulder -14.245825 3.846950 -17.381203
RightArm -17.649327 39.396835 6.744920
RightForeArm -37.066900 -0.000000 10.235353
RightHand -13.013672 -0.000000 1.618572
RightHandThumb1 -24.326973 -0.000000 -32.862282
LeftUpLeg 4.031719 13.784077 4.532157
LeftLeg 75.943253 -0.000000 -0.000000
LeftFoot -20.820820 16.022438 -13.466977
LeftToeBase -74.506607 -0.000000 0.000000
RightUpLeg -111.585646 14.042489 8.154110
RightLeg 109.746423 -0.000000 -0.000000
RightFoot -39.143465 -23.109107 14.936376
RightToeBase 25.513565 -0.000000 -0.000000
483
root 18.801124 17.326985 -19.616512 -103.126010 83.704645 -125.779349
Spine -7.903848 -4.725315 6.962946
Head -11.955060 -1.334733 -1.979177
LeftShoulder -20.603759 -41.201614 27.280842
LeftArm -16.179369 3.186582 -2.957359
LeftForeArm 2.353135 -0.000000 -0.414273
LeftHand -13.018099 -0.000000 2.183542
LeftHandThumb1 -26.253704 0.000000 33.147579
RightShoulder -14.242423 4.023816 -17.460915
RightArm -17.821319 39.425548 6.883627
RightForeArm -37.001341 -0.000000 10.289283
RightHand -13.090262 -0.000000 1.557435
RightHandThumb1 -24.326973 -0.000000 -32.862282
LeftUpLeg 3.992495 13.812108 4.505038
LeftLeg 75.883283 -0.000000 -0.000000
LeftFoot -20.847422 16.060677 -13.421620
LeftToeBase -74.332217 -0.000000 0.000000
RightUpLeg -111.700832 14.077217 8.140752
RightLeg 109.808805 -0.000000 -0.000000
RightFoot -39.162616 -23.134982 14.929138
RightToeBase 25.473244 -0.000000 -0.000000
484
root 18.818563 17.318117 -19.613835 -102.897605 83.692490 -125.641463
Spine -7.461596 -4.750586 6.981206
Head -12.356731 -1.429360 -1.995032
LeftShoulder -20.722395 -41.349999 27.361053
LeftArm -16.312050 2.997223 -3.115656
LeftForeArm 2.147007 0.000000 -0.469779
LeftHand -12.914873 -0.000000 2.162159
LeftHandThumb1 -26.253704 0.000000 33.147579
RightShoulder -14.187401 4.263772 -17.508533
RightArm -17.978375 39.269933 7.011891
RightForeArm -36.817591 0.000000 10.331870
RightHand -13.111395 -0.000000 1.450236
RightHandThumb1 -24.326973 -0.000000 -32.862282
LeftUpLeg 3.964881 13.853491 4.526156
LeftLeg 75.802869 -0.000000 -0.000000
LeftFoot -20.865492 16.148687 -13.507487
LeftToeBase -74.834882 -0.000000 0.000000
RightUpLeg -111.792665 14.125190 8.144690
RightLeg 109.863551 -0.000000 -0.000000
RightFoot -39.184102 -23.193654 14.890155
RightToeBase 25.443803 -0.000000 -0.000000
